<?xml version="1.0" encoding="utf-8"?>
<!-- Generator: Adobe Illustrator 24.0.0, SVG Export Plug-In . SVG Version: 6.00 Build 0)  -->
<svg version="1.1" xmlns="http://www.w3.org/2000/svg" xmlns:xlink="http://www.w3.org/1999/xlink" x="0px" y="0px"
	 viewBox="0 0 680.3 368.5" style="enable-background:new 0 0 680.3 368.5;" xml:space="preserve"
	 width="680" height="368">
<style type="text/css">
	.st0{display:none;}
	.st1{display:inline;}
	.st2{fill:#FFFFFF;}
	.st3{fill:#2C2B69;}
	.st4{opacity:0.79;fill:url(#SVGID_1_);}
	.st5{opacity:0.79;fill:url(#SVGID_2_);}
	.st6{opacity:0.79;fill:url(#SVGID_3_);}
	.st7{fill:#EE1D55;}
	.st8{fill:#F8ED34;}
	.st9{fill:#48C5E0;}
	.st10{fill:#2C2E6A;}
</style>
<g id="White" class="st0">
	<g class="st1">
		<path class="st2" d="M309.9,143.2c-7.5,0-14.6,1.6-21,4.4V93h-31.1v102.2v62.1v0.4h31.1v-0.4v-62.1c0-11.6,9.4-21,21-21
			c11.6,0,21,9.4,21,21v62.1h31.1v-62.1C361.9,166.5,338.6,143.2,309.9,143.2z"/>
		<path class="st2" d="M217.9,205.7c0,11.6-9.4,21-21,21s-21-9.4-21-21v-62.1h-31.1v62.1c0,0,0,0,0,0c0,11.6-9.4,21-21,21
			c-11.6,0-21-9.4-21-21v-26.1c0.1,0,0.1,0,0.2,0c9.9,0,18-8.1,18-18c0-9.9-8.1-18-18-18c-0.1,0-0.1,0-0.2,0v0H71.8v62.1
			c0,28.7,23.4,52.1,52.1,52.1c14.2,0,27.1-5.7,36.5-15c9.4,9.3,22.3,15,36.5,15c28.7,0,52.1-23.4,52.1-52.1v-62.1h-31.1V205.7z
			 M93.8,161.7c0-5,4-9,9-9c4.9,0,9,4,9,9c0,5-4,9-9,9C97.9,170.7,93.8,166.6,93.8,161.7z"/>
		<path class="st2" d="M372,156.9v100.4H403v-100c-4.7,1.5-9.7,2.3-14.9,2.3C382.5,159.6,377,158.7,372,156.9z"/>
		<path class="st2" d="M388.1,92.6c-9.9,0-18,8.1-18,18c0,9.9,8.1,18,18,18c9.9,0,18-8.1,18-18C406.1,100.6,398.1,92.6,388.1,92.6z
			 M388.1,119.6c-4.9,0-9-4-9-9c0-5,4-9,9-9c5,0,9,4,9,9C397.1,115.5,393.1,119.6,388.1,119.6z"/>
		<path class="st2" d="M590.5,221.8v-26.1c0-28.7-23.3-52.1-52.1-52.1c-14.2,0-27.1,5.7-36.5,15c-9.4-9.3-22.3-15-36.5-15
			c-28.7,0-52,23.4-52,52.1v62.1h31.1v-62.1c0-11.6,9.4-21,21-21c11.6,0,21,9.4,21,21v62.1h31.1v-62.1c0-11.6,9.4-21,21-21
			c11.6,0,21,9.4,21,21v62.1h31.1c9.9,0,18-8.1,18-18C608.5,229.8,600.4,221.8,590.5,221.8z M590.5,248.8c-5,0-9-4-9-9c0-5,4-9,9-9
			c5,0,9,4,9,9C599.5,244.8,595.5,248.8,590.5,248.8z"/>
	</g>
</g>
<g id="Original">
	<g>
		<g>
			<g>
				<path class="st3" d="M590.5,221.8v-26.1c0-28.7-23.3-52.1-52.1-52.1c-28.7,0-52.1,23.4-52.1,52.1v62.1h31.1v-62.1
					c0-11.6,9.4-21,21-21c11.6,0,21,9.4,21,21v62.1h31.1c9.9,0,18-8.1,18-18C608.5,229.8,600.4,221.8,590.5,221.8z"/>
				<path class="st3" d="M361.9,257.3h-31.1v-62.1c0-11.6-9.4-21-21-21c-11.6,0-21,9.4-21,21v62.1h-31.1v-62.1
					c0-28.7,23.3-52.1,52-52.1c28.7,0,52.1,23.4,52.1,52.1V257.3z"/>
				<path class="st3" d="M196.9,257.8c-28.7,0-52.1-23.4-52.1-52.1v-62.1h31.1v62.1c0,11.6,9.4,21,21,21s21-9.4,21-21v-62.1H249
					v62.1C249,234.4,225.6,257.8,196.9,257.8z"/>
				<linearGradient id="SVGID_1_" gradientUnits="userSpaceOnUse" x1="132.4403" y1="181.5402" x2="242.7976" y2="230.6745">
					<stop  offset="0.2025" style="stop-color:#000025"/>
					<stop  offset="0.3627" style="stop-color:#000026;stop-opacity:0.5919"/>
					<stop  offset="0.4204" style="stop-color:#000029;stop-opacity:0.4449"/>
					<stop  offset="0.4616" style="stop-color:#01002F;stop-opacity:0.3401"/>
					<stop  offset="0.4948" style="stop-color:#080037;stop-opacity:0.2554"/>
					<stop  offset="0.5233" style="stop-color:#110640;stop-opacity:0.1828"/>
					<stop  offset="0.5486" style="stop-color:#19134B;stop-opacity:0.1185"/>
					<stop  offset="0.5714" style="stop-color:#221E58;stop-opacity:6.042171e-02"/>
					<stop  offset="0.5917" style="stop-color:#2B2966;stop-opacity:8.688092e-03"/>
					<stop  offset="0.5951" style="stop-color:#2C2B69;stop-opacity:0"/>
				</linearGradient>
				<path class="st4" d="M196.9,257.8c-28.7,0-51.1-23.1-51.1-51.8l2-59l24.8,0l3.3,58.7c0,11.6,9.4,21,21,21s21-9.4,21-21l0,0H249
					l0,0C249,234.4,225.6,257.8,196.9,257.8z"/>
				<g>
					<path class="st3" d="M372,156.9v100.4H403v-100c-4.7,1.5-9.7,2.3-14.9,2.3C382.5,159.6,377,158.7,372,156.9z"/>
				</g>
				<path class="st3" d="M406.1,110.6c0,9.9-8.1,18-18,18c-9.9,0-18-8.1-18-18c0-9.9,8.1-18,18-18
					C398.1,92.6,406.1,100.6,406.1,110.6z"/>
				<linearGradient id="SVGID_2_" gradientUnits="userSpaceOnUse" x1="258.8981" y1="199.6787" x2="361.9454" y2="199.6787">
					<stop  offset="0" style="stop-color:#000025"/>
					<stop  offset="0.1425" style="stop-color:#000026;stop-opacity:0.7132"/>
					<stop  offset="0.2205" style="stop-color:#00002A;stop-opacity:0.5563"/>
					<stop  offset="0.2828" style="stop-color:#030031;stop-opacity:0.4309"/>
					<stop  offset="0.3369" style="stop-color:#0B003A;stop-opacity:0.3221"/>
					<stop  offset="0.3856" style="stop-color:#140B44;stop-opacity:0.224"/>
					<stop  offset="0.4305" style="stop-color:#1D1850;stop-opacity:0.1337"/>
					<stop  offset="0.4716" style="stop-color:#26235F;stop-opacity:5.095804e-02"/>
					<stop  offset="0.4969" style="stop-color:#2C2B69;stop-opacity:0"/>
				</linearGradient>
				<path class="st5" d="M361.9,194.7h-31.1v0.5c0-11.6-9.4-21-21-21c-11.6,0-21,9.4-21,21l-3.1,60.9l-24.1,0.1l-2.8-60.9
					c0-28.7,22.3-52.1,51-52.1c28.7,0,52.1,23.4,52.1,52.1V194.7z"/>
				<rect x="257.8" y="93" class="st3" width="31.1" height="164.8"/>
				
					<linearGradient id="SVGID_3_" gradientUnits="userSpaceOnUse" x1="473.0187" y1="1786.158" x2="584.8853" y2="1835.9642" gradientTransform="matrix(1 0 0 -1 0 2007.9766)">
					<stop  offset="0.2025" style="stop-color:#000025"/>
					<stop  offset="0.3627" style="stop-color:#000026;stop-opacity:0.5919"/>
					<stop  offset="0.4204" style="stop-color:#000029;stop-opacity:0.4449"/>
					<stop  offset="0.4616" style="stop-color:#01002F;stop-opacity:0.3401"/>
					<stop  offset="0.4948" style="stop-color:#080037;stop-opacity:0.2554"/>
					<stop  offset="0.5233" style="stop-color:#110640;stop-opacity:0.1828"/>
					<stop  offset="0.5486" style="stop-color:#19134B;stop-opacity:0.1185"/>
					<stop  offset="0.5714" style="stop-color:#221E58;stop-opacity:6.042171e-02"/>
					<stop  offset="0.5917" style="stop-color:#2B2966;stop-opacity:8.688092e-03"/>
					<stop  offset="0.5951" style="stop-color:#2C2B69;stop-opacity:0"/>
				</linearGradient>
				<path class="st6" d="M538.5,143.6c-28.7,0-51.3,23.4-51.3,52.1l1.3,60.8h27.4l1.5-60.9c0-11.6,9.4-21,21-21c11.6,0,21,9.4,21,21
					l0,0h31.1l0,0C590.5,167,567.2,143.6,538.5,143.6z"/>
				<path class="st3" d="M517.5,257.8h-31.1v-62.1c0-11.6-9.4-21-21-21c-11.6,0-21,9.4-21,21v62.1h-31.1v-62.1
					c0-28.7,23.4-52.1,52-52.1c28.7,0,52.1,23.3,52.1,52.1V257.8z"/>
				<path class="st3" d="M144.9,143.6v62.1c0,11.6-9.4,21-21,21c-11.6,0-21-9.4-21-21v-26.1c0.1,0,0.1,0,0.2,0c9.9,0,18-8.1,18-18
					c0-9.9-8.1-18-18-18c-0.1,0-0.1,0-0.2,0v0H71.8v62.1c0,28.7,23.4,52.1,52.1,52.1c28.7,0,52.1-23.4,52.1-52.1v-62.1H144.9z"/>
				<path class="st7" d="M397.1,110.6c0,5-4,9-9,9c-4.9,0-9-4-9-9c0-5,4-9,9-9C393.1,101.6,397.1,105.6,397.1,110.6z"/>
				<path class="st8" d="M111.8,161.7c0,5-4,9-9,9c-5,0-9-4-9-9c0-5,4-9,9-9C107.8,152.7,111.8,156.7,111.8,161.7z"/>
				<path class="st9" d="M599.5,239.8c0,4.9-4,9-9,9c-5,0-9-4-9-9c0-5,4-9,9-9C595.5,230.8,599.5,234.9,599.5,239.8z"/>
			</g>
		</g>
	</g>
	<g>
		<path class="st10" d="M594.3,142.4c0-1.8-1.5-3.3-3.3-3.3h-2h-2v2v2.6v2v2.4h2v-2.4h2c0,0,0,0,0,0c0.7,0,1.3,0.6,1.3,1.3h0v1.1h2
			V147c0-0.9-0.4-1.7-0.9-2.3C594,144.1,594.3,143.3,594.3,142.4z M591.1,143.7h-2v-2.6h2c0.7,0,1.3,0.6,1.3,1.3
			C592.4,143.1,591.8,143.7,591.1,143.7z"/>
		<path class="st10" d="M590.5,136.6c3.9,0,7,3.1,7,7c0,3.9-3.1,7-7,7c-3.9,0-7-3.1-7-7C583.5,139.8,586.6,136.6,590.5,136.6
			 M590.5,134.7c-2.4,0-4.6,0.9-6.3,2.6s-2.6,3.9-2.6,6.3s0.9,4.6,2.6,6.3c1.7,1.7,3.9,2.6,6.3,2.6c2.4,0,4.6-0.9,6.3-2.6
			c1.7-1.7,2.6-3.9,2.6-6.3s-0.9-4.6-2.6-6.3S592.9,134.7,590.5,134.7L590.5,134.7z"/>
	</g>
</g>
</svg>
